<?xml version="1.0" encoding="UTF-8"?>
<!DOCTYPE svg PUBLIC "-//W3C//DTD SVG 1.1//EN" "http://www.w3.org/Graphics/SVG/1.1/DTD/svg11.dtd">
<!-- Creator: CorelDRAW X7 -->
<svg xmlns="http://www.w3.org/2000/svg" xml:space="preserve" width="33.8666mm" height="8.4666mm" version="1.1" style="shape-rendering:geometricPrecision; text-rendering:geometricPrecision; image-rendering:optimizeQuality; fill-rule:evenodd; clip-rule:evenodd"
viewBox="0 0 3387 847"
 xmlns:xlink="http://www.w3.org/1999/xlink">
 <defs>
  <style type="text/css">
   <![CDATA[
    .fil0 {fill:#FEFEFE}
    .fil4 {fill:#006B5C;fill-rule:nonzero}
    .fil2 {fill:#0F675B;fill-rule:nonzero}
    .fil3 {fill:#197469;fill-rule:nonzero}
    .fil7 {fill:#19746C;fill-rule:nonzero}
    .fil8 {fill:#1E7970;fill-rule:nonzero}
    .fil5 {fill:#549189;fill-rule:nonzero}
    .fil6 {fill:#75A79F;fill-rule:nonzero}
    .fil1 {fill:#EF661B;fill-rule:nonzero}
   ]]>
  </style>
 </defs>
 <g id="Layer_x0020_1">
  <metadata id="CorelCorpID_0Corel-Layer"/>
  <rect class="fil0" width="3387" height="847"/>
  <g id="_2120495214112">
   <path class="fil0" d="M355 382l-50 58 102 110 144 -166 60 -76 0 -91 -22 11c0,0 -65,44 -68,47 -4,3 -32,24 -36,30 -3,6 -85,93 -85,93 0,0 -20,-18 -25,-16 -5,2 -21,-6 -21,-6l1 6z"/>
   <g>
    <path class="fil1" d="M1033 385c5,-3 6,-9 8,-14 50,-113 100,-227 150,-341 9,-21 6,-18 26,-18 29,0 58,0 87,0 5,0 9,0 14,0 3,0 6,2 6,6 0,5 0,9 0,14 0,190 0,380 0,570 0,3 0,7 0,10 0,7 -2,9 -7,9 -28,0 -56,0 -84,0 -5,0 -7,-2 -7,-7 0,-5 0,-10 0,-14 0,-131 0,-262 1,-392 0,-9 0,-18 0,-26 0,-3 2,-8 -3,-8 -3,-1 -4,4 -5,7 -25,52 -49,105 -73,158 -26,56 -51,112 -77,167 -1,4 -3,8 -5,11 -2,4 -5,6 -9,6 -18,0 -37,0 -55,0 -5,0 -7,-2 -9,-6 -3,-6 -6,-12 -9,-18 -47,-102 -93,-204 -140,-306 -3,-5 -6,-11 -8,-16 -1,-1 -3,-1 -4,-1 -1,1 -2,2 -2,3 0,4 0,9 0,14 3,135 2,270 2,406 0,24 3,22 -22,22 -19,0 -39,0 -59,0 -8,0 -9,-1 -9,-11 -1,-4 0,-9 0,-14 0,-186 0,-373 0,-560 0,-27 -3,-24 23,-24 27,0 55,0 82,0 21,0 17,-3 26,18 27,59 54,117 81,176 23,52 46,104 69,156 4,8 6,16 12,23z"/>
    <path class="fil1" d="M2092 578c-6,5 -10,10 -15,14 -43,34 -90,46 -142,34 -38,-8 -67,-30 -88,-64 -14,-21 -23,-46 -29,-71 -15,-68 -14,-136 5,-203 5,-17 12,-33 21,-47 27,-47 67,-72 118,-76 44,-4 83,8 117,37 3,3 6,5 9,8 2,2 5,0 5,-3 1,-5 1,-10 1,-16 0,-51 0,-103 0,-155 0,-6 0,-11 0,-16 0,-5 2,-8 6,-8 1,0 2,0 2,0 24,0 49,0 73,0 7,0 8,1 9,9 0,5 0,10 0,14 0,187 0,375 0,562 0,26 3,24 -24,24 -15,0 -30,0 -45,0 -10,0 -13,-1 -14,-11 -1,-8 -3,-15 -5,-22 -1,-3 -2,-5 -4,-10zm2 -178l0 0c0,-37 -1,-74 0,-110 0,-12 -4,-19 -13,-25 -20,-13 -41,-22 -65,-24 -37,-4 -73,11 -93,51 -5,10 -9,21 -12,32 -12,46 -12,93 -2,140 3,16 9,31 17,44 16,27 39,42 69,45 31,3 60,-6 86,-23 9,-6 13,-13 13,-25 -1,-35 0,-70 0,-105z"/>
    <path class="fil2" d="M2330 421c-4,48 19,106 74,126 24,9 49,12 75,11 34,-1 68,-5 101,-17 2,0 3,-1 5,-1 3,-1 5,1 6,4 3,19 6,38 8,57 1,3 0,5 -3,6 -2,1 -4,2 -6,2 -66,22 -132,28 -201,15 -14,-3 -28,-8 -41,-14 -51,-22 -85,-62 -101,-117 -19,-63 -19,-126 -1,-188 24,-80 78,-125 157,-138 34,-5 68,-5 102,4 64,17 105,67 114,136 5,36 1,70 -4,105 -1,5 -4,7 -8,8 -5,0 -10,0 -15,0 -81,0 -161,0 -242,0 -7,0 -14,-2 -20,1zm99 -69l0 0c25,0 49,0 73,0 38,-1 32,8 34,-37 1,-31 -17,-69 -59,-83 -16,-5 -33,-6 -49,-4 -56,5 -102,60 -100,119 0,3 2,5 5,5 4,0 8,0 13,0 28,0 56,0 83,0z"/>
    <path class="fil1" d="M1619 420c-41,0 -82,0 -124,0 -3,0 -7,0 -11,0 -6,0 -7,2 -7,9 1,9 2,19 4,28 2,9 5,19 9,28 11,29 32,49 59,61 24,9 48,12 73,12 36,0 71,-4 105,-16 2,0 4,-1 5,-2 4,-1 7,0 8,4 3,19 6,38 8,57 1,3 -1,5 -3,7 -2,0 -4,1 -6,2 -53,17 -107,24 -163,19 -25,-2 -50,-7 -74,-17 -48,-19 -82,-54 -101,-105 -17,-44 -21,-90 -17,-137 2,-29 7,-57 18,-83 26,-66 73,-104 139,-118 38,-8 75,-8 113,2 80,22 112,86 116,148 2,29 0,59 -5,88 -2,12 -3,13 -15,13 -43,0 -87,0 -131,0zm-39 -68l0 0c0,0 0,0 0,0 31,0 62,0 93,0 9,0 9,-1 10,-9 1,-8 2,-17 3,-25 0,-42 -24,-75 -62,-86 -14,-5 -30,-6 -45,-4 -28,2 -52,14 -71,36 -14,16 -23,35 -28,57 -1,8 -3,16 -3,25 0,3 2,5 5,6 4,0 8,0 13,0 28,0 57,0 85,0z"/>
    <path class="fil2" d="M2904 574c-9,7 -15,12 -21,17 -48,39 -101,48 -159,33 -15,-4 -28,-11 -40,-20 -26,-21 -41,-49 -42,-84 -3,-53 18,-94 62,-121 30,-18 62,-28 95,-35 26,-6 52,-10 79,-13 6,-1 12,-2 18,-3 5,0 8,-3 8,-7 -1,-18 1,-36 -3,-54 -5,-23 -18,-38 -37,-47 -13,-6 -27,-8 -41,-8 -31,-1 -61,5 -90,14 -14,4 -27,9 -40,14 -10,3 -10,3 -14,-8 -4,-15 -9,-30 -13,-44 -2,-8 -1,-10 6,-12 29,-10 59,-19 90,-25 26,-5 53,-8 79,-7 25,1 49,5 73,15 49,21 76,60 79,116 0,5 0,11 0,16 0,97 0,193 0,290 0,5 0,9 0,14 0,4 -2,6 -6,6 -23,0 -46,0 -68,0 -5,0 -7,-3 -8,-7 -2,-13 -4,-25 -7,-40zm0 -114l0 0c0,0 0,0 0,0 0,-13 0,-26 0,-38 0,-15 0,-16 -15,-14 -11,1 -22,2 -32,4 -27,5 -53,11 -77,23 -12,6 -23,14 -33,24 -15,17 -19,37 -13,59 6,22 22,34 43,38 47,8 87,-10 122,-42 4,-3 5,-7 5,-12 0,-14 0,-28 0,-42z"/>
    <path class="fil2" d="M3207 621c-52,0 -103,0 -154,0 -5,0 -10,0 -15,0 -3,0 -5,-2 -5,-5 -1,-19 -1,-39 -1,-58 0,-4 3,-7 5,-11 6,-7 12,-15 18,-23 65,-85 130,-169 194,-254 5,-6 9,-11 13,-17 3,-4 1,-8 -4,-8 -6,0 -11,0 -17,0 -58,0 -117,0 -175,0 -5,0 -10,0 -15,-1 -4,0 -6,-2 -6,-6 0,-9 0,-17 0,-26 0,-11 0,-21 0,-32 0,-5 3,-7 7,-7 4,0 8,0 12,0 99,0 198,0 297,0 16,0 17,-2 17,17 -1,12 -1,25 0,38 0,9 -3,16 -8,23 -25,34 -50,67 -76,101 -44,59 -89,119 -134,179 -3,4 -6,8 -8,13 -1,1 0,4 2,4 5,1 11,1 17,1 65,0 129,0 194,0 24,0 22,-1 22,22 0,14 0,28 0,42 0,5 -2,8 -7,8 -5,0 -10,0 -15,0 -53,0 -106,0 -158,0z"/>
    <path class="fil1" d="M59 803c-13,0 -25,0 -38,-1 -6,0 -8,-2 -8,-8 0,-1 0,-2 0,-4 -1,-17 -1,-17 16,-17 22,0 44,0 66,0 8,0 9,1 9,9 0,3 0,7 0,10 0,9 -1,10 -9,11 -12,0 -24,0 -36,0 0,0 0,0 0,0z"/>
    <path class="fil1" d="M3341 773c12,0 25,0 37,0 6,0 8,2 8,8 1,4 1,7 1,10 -1,10 -2,11 -12,12 -23,0 -47,0 -71,0 -8,0 -9,-2 -9,-10 0,-4 0,-8 0,-12 0,-6 2,-8 8,-8 12,0 25,0 38,0 0,0 0,0 0,0z"/>
    <path class="fil2" d="M257 798c3,-3 2,-7 2,-11 0,-24 -1,-48 0,-72 0,-9 1,-10 9,-10 1,0 2,0 2,0 7,0 8,1 9,8 0,1 0,2 0,4 0,39 0,78 0,117 0,10 -1,10 -10,10 -9,1 -14,-2 -19,-10 -14,-23 -29,-46 -44,-69 -3,-4 -5,-8 -8,-12 -5,1 -4,5 -4,8 0,24 1,48 0,72 0,11 0,11 -10,11 -9,0 -9,-1 -10,-8 0,-2 0,-3 0,-4 0,-38 0,-76 0,-114 0,-3 0,-6 1,-8 0,-2 1,-4 3,-5 8,-3 16,0 21,7 3,4 5,8 8,12 14,22 27,43 41,65 2,3 4,8 9,9z"/>
    <path class="fil2" d="M1375 843c-9,2 -15,2 -21,0 -3,-3 -2,-6 -2,-9 0,-38 0,-76 0,-114 0,-3 0,-7 0,-10 1,-3 3,-5 5,-5 4,0 8,0 12,0 3,0 5,2 5,6 1,14 1,28 1,42 0,8 2,9 9,9 15,1 30,0 45,0 4,-10 2,-19 2,-28 1,-6 0,-12 0,-18 1,-10 2,-11 12,-11 10,0 11,1 11,10 0,41 0,82 0,122 0,2 -1,4 -1,6 -7,2 -14,2 -22,-1 0,-16 1,-33 0,-49 0,-10 -1,-11 -10,-11 -13,0 -26,0 -39,1 -5,0 -7,2 -7,7 0,10 0,20 0,30 0,7 0,14 0,23z"/>
    <path class="fil2" d="M2771 703c11,0 21,2 32,5 8,2 9,3 8,10 -3,9 -4,11 -11,9 -12,-3 -23,-5 -34,-4 -5,0 -9,1 -13,2 -11,5 -13,20 -4,27 4,3 9,6 14,7 7,3 14,5 21,8 4,1 7,3 11,5 14,7 21,18 20,35 0,17 -9,30 -25,36 -8,2 -16,4 -24,4 -13,-1 -26,-3 -38,-5 -9,-1 -11,-4 -8,-13 1,-7 2,-8 9,-7 12,2 23,5 36,5 6,0 12,-1 18,-4 12,-8 13,-23 0,-31 -6,-4 -14,-6 -21,-9 -8,-3 -18,-6 -26,-11 -8,-6 -14,-14 -15,-24 -3,-21 5,-35 24,-42 8,-3 17,-3 26,-3z"/>
    <path class="fil2" d="M2003 844c-4,0 -8,0 -11,0 -10,0 -10,0 -13,-9 -2,-6 -4,-12 -6,-19 -1,-4 -4,-6 -8,-6 -12,0 -24,0 -36,0 -5,0 -7,3 -9,7 -2,6 -4,12 -6,19 -2,8 -3,8 -10,8 -3,0 -7,0 -10,0 -2,0 -3,-2 -3,-4 0,-2 1,-4 1,-6 13,-40 26,-80 39,-119 3,-11 3,-11 15,-11 3,0 7,0 11,0 3,0 5,2 6,5 1,2 1,5 2,7 12,39 25,77 37,116 1,3 3,7 1,12zm-39 -53l0 0c-1,-15 -8,-41 -17,-60 -8,20 -14,39 -19,60 13,1 25,1 36,0z"/>
    <path class="fil2" d="M404 811c5,-21 11,-42 16,-63 4,-1 8,-1 12,-1 3,0 6,2 7,6 3,14 7,28 10,42 2,6 4,11 5,17 5,-2 5,-6 6,-10 4,-16 8,-33 12,-49 1,-5 9,-8 14,-5 0,1 1,2 1,3 0,2 0,4 0,6 -7,26 -13,53 -20,79 -1,3 -1,7 -5,8 -5,1 -10,2 -15,-1 -1,0 -2,-4 -3,-6 -3,-14 -7,-27 -10,-41 -1,-4 -2,-9 -6,-13 -9,20 -10,41 -18,60 -2,1 -3,1 -4,2 -14,0 -14,0 -18,-14 -6,-26 -12,-51 -18,-76 -1,-3 -2,-7 2,-8 4,0 10,-2 12,3 2,4 3,8 4,12 3,12 5,24 8,36 2,5 3,9 5,14 1,-1 2,-1 3,-1z"/>
    <path class="fil2" d="M3181 802c6,-14 12,-28 19,-42 6,-14 4,-13 19,-13 5,0 7,3 7,8 0,22 0,44 0,66 0,5 0,11 0,16 -1,5 -2,7 -7,7 -7,0 -9,-1 -10,-7 0,-11 0,-22 0,-34 0,-5 0,-10 0,-16 0,-1 -1,-2 -1,-3 -3,-1 -4,1 -5,3 -5,11 -10,22 -16,34 0,2 -1,3 -2,5 -4,4 -12,3 -15,-3 -5,-11 -10,-22 -15,-34 -1,-1 -2,-2 -2,-3 -1,-1 -2,-2 -3,-2 -2,1 -3,1 -3,3 0,16 0,32 0,48 0,8 -4,11 -11,9 -1,-1 -3,-2 -3,-4 -1,-1 -1,-4 -1,-6 0,-26 0,-53 0,-80 0,-2 1,-3 1,-5 2,-1 3,-2 4,-2 10,-2 18,1 22,13 3,11 8,21 13,31 2,3 2,8 9,11z"/>
    <path class="fil2" d="M2431 796c0,-13 0,-26 1,-40 0,-3 -1,-7 2,-8 5,-2 12,-1 14,3 3,3 5,6 7,10 8,13 17,26 25,39 2,2 3,4 5,7 1,1 2,1 3,0 1,0 2,-1 2,-2 0,-17 0,-34 0,-50 0,-6 2,-8 9,-8 3,0 6,1 6,5 0,14 0,27 0,40 0,16 0,31 0,46 0,4 -2,6 -6,6 -6,1 -11,-1 -14,-7 -9,-15 -19,-29 -29,-44 -1,-2 -3,-5 -4,-7 -1,0 -2,-1 -3,-1 -3,0 -3,2 -3,4 0,12 0,24 0,36 0,4 0,9 0,14 0,4 -3,5 -9,5 -4,0 -5,-2 -5,-6 0,-14 0,-28 0,-42 0,0 0,0 -1,0z"/>
    <path class="fil2" d="M662 796c0,14 0,28 -1,42 0,4 -2,6 -6,6 -6,1 -10,-1 -14,-7 -6,-11 -13,-21 -20,-31 -3,-5 -6,-9 -9,-13 -1,-3 -3,-7 -6,-6 -5,1 -4,6 -4,10 0,9 0,17 0,26 0,4 0,9 0,14 0,6 -2,8 -8,7 -4,0 -7,-1 -7,-6 0,0 0,-1 0,-2 0,-27 0,-54 0,-81 0,-6 3,-8 9,-8 5,0 8,2 10,6 8,13 17,26 25,38 2,4 5,8 8,11 1,2 6,0 6,-2 1,-3 2,-6 2,-9 0,-13 0,-26 0,-38 0,-4 2,-6 6,-6 5,0 8,1 8,5 1,15 0,30 0,44 0,0 0,0 1,0z"/>
    <path class="fil2" d="M964 806c6,13 12,24 19,36 -16,3 -16,3 -23,-8 -3,-6 -7,-12 -10,-19 -3,-7 -9,-8 -16,-8 -3,1 -6,2 -6,6 0,8 0,16 0,24 0,6 -2,7 -9,7 -5,0 -7,-1 -7,-7 0,-27 0,-55 0,-83 0,-5 3,-7 7,-7 11,0 22,0 32,0 15,1 24,7 28,19 5,14 2,26 -9,36 -2,1 -3,2 -6,4zm-24 -13l0 0c0,0 0,0 0,0 5,0 9,0 13,-1 8,-1 12,-7 12,-15 0,-9 -5,-15 -12,-16 -6,-1 -13,0 -19,0 -4,0 -6,3 -6,6 0,7 0,13 0,20 1,4 3,6 6,6 2,0 4,0 6,0z"/>
    <path class="fil2" d="M1783 786c12,2 24,1 36,0 3,-11 1,-22 2,-32 0,-6 2,-7 9,-7 5,0 7,2 7,7 0,27 0,55 0,82 0,6 -2,8 -8,8 -7,0 -9,-3 -9,-9 1,-7 0,-15 0,-22 0,-4 1,-8 -2,-12 -1,0 -2,0 -4,0 -10,0 -20,0 -30,0 -5,10 -2,21 -3,31 0,2 0,3 0,4 0,3 1,6 -2,7 -4,2 -8,2 -11,0 -1,-1 -2,-3 -2,-5 -1,-29 -1,-57 0,-86 0,-4 3,-5 6,-5 4,0 8,-1 9,5 1,4 0,9 0,14 1,6 -1,13 2,20z"/>
    <path class="fil2" d="M751 794c0,-13 0,-27 0,-40 0,-4 1,-7 5,-7 17,0 34,0 51,0 4,0 6,5 5,9 -1,3 -3,4 -6,4 -9,0 -19,0 -28,1 -9,0 -10,1 -10,10 0,2 0,4 0,6 0,8 1,10 8,10 9,0 17,0 25,0 4,0 6,5 5,9 -1,3 -3,4 -6,4 -8,0 -16,0 -24,1 -6,0 -8,1 -8,8 0,1 0,2 0,4 -1,17 -1,17 16,18 8,0 17,0 25,0 2,0 4,2 4,6 0,3 -1,7 -5,7 -17,0 -34,0 -51,0 -5,0 -6,-4 -6,-8 0,-14 0,-28 0,-42 0,0 0,0 0,0z"/>
    <path class="fil2" d="M1494 761c-4,8 -3,16 -1,25 10,2 21,0 32,1 4,0 5,3 5,7 0,4 -2,6 -5,6 -11,0 -21,0 -30,0 -1,2 -3,3 -3,4 -1,31 -3,26 23,27 6,0 11,-1 17,0 4,0 5,3 5,7 0,4 -2,6 -6,6 -16,0 -33,0 -49,0 -5,0 -6,-3 -6,-8 0,-27 0,-54 0,-82 0,0 0,-1 0,-2 0,-3 1,-5 4,-5 18,0 35,0 52,0 2,0 4,3 4,6 0,4 -1,7 -4,7 -5,1 -9,0 -14,1 -8,0 -16,0 -24,0z"/>
    <path class="fil2" d="M2605 748c19,-2 38,-1 56,-1 4,0 4,4 4,8 0,3 -1,5 -4,5 -10,1 -20,0 -30,1 -9,0 -10,1 -10,10 -1,2 -1,4 0,6 0,8 2,10 8,10 9,0 17,0 25,0 4,0 6,3 5,7 0,4 -2,6 -5,6 -9,0 -18,0 -27,1 -3,0 -6,2 -6,6 0,2 0,4 -1,6 0,17 1,18 17,18 8,0 16,-1 25,0 3,0 4,4 4,8 0,3 -2,4 -5,5 -1,0 -2,0 -3,0 -17,-1 -34,2 -51,-1 -5,-18 -2,-35 -2,-53 -1,-14 -1,-28 0,-42z"/>
    <path class="fil2" d="M3057 748c20,-2 38,-1 57,-1 2,0 4,3 4,6 0,3 0,7 -4,7 -10,1 -21,0 -31,1 -8,0 -9,1 -10,11 0,2 1,5 1,8 0,4 2,7 7,7 9,0 18,0 26,0 4,1 5,4 5,8 0,3 -2,5 -5,5 -9,0 -18,0 -26,1 -5,0 -7,3 -7,7 -1,24 -1,23 19,23 7,0 14,-1 21,0 4,0 5,4 5,7 -1,3 -2,5 -5,6 -1,0 -2,0 -3,0 -17,-1 -34,2 -51,-1 -6,-18 -2,-35 -3,-53 0,-14 0,-28 0,-42z"/>
    <path class="fil2" d="M1219 843c0,-32 0,-63 0,-94 15,-3 30,-3 44,-1 13,2 22,10 27,23 5,16 5,33 0,49 -5,13 -15,22 -28,23 -14,2 -28,2 -43,0zm16 -47l0 0c0,0 0,0 0,0 0,9 0,18 0,28 0,3 2,6 5,6 21,2 34,0 37,-30 0,-2 1,-4 0,-6 -1,-28 -10,-35 -35,-33 -5,0 -7,2 -7,7 0,9 0,19 0,28z"/>
    <path class="fil2" d="M2223 832c4,0 10,0 15,0 4,0 8,-2 11,-4 6,-5 6,-14 0,-19 -5,-3 -10,-5 -16,-7 -6,-3 -13,-5 -19,-9 -9,-6 -12,-16 -10,-28 2,-10 9,-15 18,-18 14,-4 28,-1 41,2 4,1 5,4 3,8 -1,3 -2,6 -6,5 -8,-2 -16,-3 -25,-3 -3,0 -7,1 -11,3 -5,4 -6,12 -1,17 4,4 10,5 15,8 6,2 12,4 18,7 11,6 15,14 14,27 -2,13 -9,19 -19,23 -5,1 -10,2 -15,2 -10,-1 -19,-2 -29,-3 -3,-1 -4,-3 -4,-6 -1,-5 2,-9 7,-8 4,1 8,2 13,3z"/>
    <path class="fil2" d="M2045 846c-8,-1 -16,-2 -25,-3 -3,-1 -4,-5 -3,-10 1,-3 3,-5 6,-4 8,2 17,3 26,3 4,0 9,-1 13,-3 7,-5 7,-16 0,-20 -5,-3 -10,-5 -15,-7 -7,-3 -13,-6 -19,-9 -9,-6 -12,-15 -11,-26 2,-10 8,-17 17,-19 15,-5 29,-2 43,1 3,1 4,3 4,6 -1,3 -2,7 -6,7 -8,0 -15,-2 -23,-3 -4,0 -9,1 -13,2 -7,3 -8,13 -2,18 5,4 10,6 16,8 5,2 12,4 17,7 10,5 15,14 13,26 -1,12 -7,20 -18,23 -6,3 -13,3 -20,3z"/>
    <path class="fil2" d="M895 819c0,22 -1,23 -21,26 -32,4 -50,-11 -51,-45 -1,-10 0,-20 4,-30 4,-12 12,-20 25,-23 13,-3 26,-1 38,3 4,2 5,5 4,10 -1,4 -4,4 -8,3 -6,-2 -13,-4 -20,-3 -13,0 -21,6 -25,19 -3,10 -3,20 -1,30 5,18 15,25 32,22 5,-1 7,-3 7,-8 0,-7 0,-15 1,-22 0,-5 5,-5 8,-5 4,0 7,1 7,5 0,6 0,12 0,18z"/>
    <path class="fil2" d="M1625 843c-15,1 -15,1 -19,-9 -1,-3 -2,-6 -4,-9 -1,-3 -3,-5 -5,-5 -5,0 -10,0 -16,0 -13,0 -13,0 -18,14 -4,10 -5,11 -13,10 -4,0 -5,-2 -4,-5 2,-7 4,-13 6,-19 7,-22 13,-43 20,-64 3,-9 4,-10 12,-10 10,0 11,1 13,8 10,29 19,58 28,89zm-27 -37l0 0c-4,-13 -8,-26 -12,-39 -2,2 -3,3 -4,4 -1,4 -3,9 -4,13 -7,25 -13,25 20,22z"/>
    <path class="fil2" d="M2120 846c-6,-1 -14,-2 -22,-3 -4,-1 -5,-4 -4,-10 0,-4 3,-5 6,-4 8,1 15,2 23,3 4,0 8,0 11,-1 5,-2 9,-5 10,-11 1,-6 -2,-10 -7,-13 -6,-3 -11,-5 -16,-6 -6,-3 -12,-5 -17,-9 -8,-6 -11,-14 -10,-24 1,-11 7,-17 16,-20 9,-3 18,-4 27,-2 5,1 11,2 16,3 4,1 5,4 4,8 -1,3 -3,6 -7,5 -6,-1 -13,-2 -20,-3 -3,0 -7,0 -10,1 -5,1 -10,5 -10,10 0,5 2,9 7,11 4,3 9,4 14,6 5,3 12,5 17,8 9,5 14,14 13,24 -1,11 -7,19 -16,23 -7,4 -15,4 -25,4z"/>
    <path class="fil2" d="M2420 843c-4,1 -7,1 -9,1 -4,0 -7,-1 -9,-6 -1,-4 -2,-7 -3,-11 -2,-6 -5,-7 -10,-7 -3,0 -5,0 -8,0 -17,0 -18,0 -24,17 -2,6 -5,7 -10,7 -5,0 -7,-2 -6,-7 9,-28 18,-55 27,-83 2,-7 3,-8 11,-8 10,0 11,1 14,10 9,28 18,57 27,87zm-54 -36l0 0c10,0 17,2 25,-1 0,-2 1,-4 0,-6 -3,-10 -6,-21 -10,-34 -8,13 -11,26 -15,41z"/>
    <path class="fil2" d="M2934 846c-9,-1 -17,-2 -25,-3 -4,-1 -5,-5 -4,-10 1,-4 4,-5 7,-4 8,1 15,2 23,3 3,0 7,0 11,-1 5,-2 9,-6 9,-12 1,-6 -2,-10 -7,-12 -6,-3 -11,-5 -16,-7 -6,-2 -12,-4 -17,-8 -8,-6 -11,-14 -10,-24 2,-11 7,-17 17,-20 14,-5 29,-3 43,1 3,1 4,4 3,8 0,4 -3,6 -6,5 -8,-2 -15,-3 -23,-3 -4,0 -7,1 -11,2 -7,3 -9,13 -3,18 4,3 9,5 14,7 6,3 13,5 19,8 10,5 15,14 14,26 -1,11 -7,19 -18,23 -6,3 -13,3 -20,3z"/>
    <path class="fil2" d="M990 842c5,-14 9,-28 13,-42 5,-14 9,-29 14,-43 4,-11 5,-11 15,-11 5,0 9,2 10,7 9,29 18,58 27,87 0,1 0,2 0,3 -2,0 -5,1 -7,1 -4,1 -7,-1 -9,-5 -3,-6 -2,-15 -8,-18 -6,-2 -14,-1 -21,-1 -2,0 -3,0 -5,0 -4,0 -6,2 -8,5 -1,3 -2,7 -3,10 -3,10 -3,10 -18,7zm40 -77l0 0c-6,15 -10,27 -13,42 4,0 8,1 12,1 4,0 9,0 13,-2 -2,-14 -6,-27 -12,-41z"/>
    <path class="fil2" d="M545 706c5,-2 10,-1 15,-1 4,0 6,2 6,6 1,3 1,5 1,8 0,38 0,77 0,115 0,3 -1,5 -1,8 -7,3 -14,3 -20,1 -3,-16 -3,-120 -1,-137z"/>
    <path class="fil2" d="M1161 831c15,0 27,0 40,0 4,0 5,2 5,6 0,4 -1,7 -5,7 -14,0 -29,0 -44,0 -3,0 -7,1 -11,-2 0,-31 0,-62 0,-93 9,-2 45,-3 55,-2 3,1 5,3 5,7 -1,4 -3,6 -6,6 -5,1 -10,0 -15,1 -6,0 -12,0 -17,0 -5,0 -7,3 -7,7 0,4 0,8 0,12 0,5 3,7 7,7 9,0 18,0 27,1 4,0 4,4 4,7 0,3 -2,4 -3,5 -4,0 -8,0 -11,0 -5,0 -11,0 -16,0 -7,1 -8,2 -8,10 0,6 0,12 0,21z"/>
    <path class="fil2" d="M2519 795c1,-4 1,-9 1,-13 4,-24 18,-37 41,-37 9,0 18,2 26,6 3,1 5,4 4,7 -1,4 -4,6 -7,5 -8,-2 -15,-4 -23,-4 -11,1 -19,7 -22,18 -5,12 -5,25 0,37 3,11 11,17 22,18 8,0 15,-2 23,-4 3,-1 6,1 7,5 1,4 -1,6 -4,8 -14,5 -27,6 -41,3 -11,-3 -18,-11 -22,-21 -3,-9 -5,-18 -5,-28z"/>
    <path class="fil2" d="M301 794c0,-13 0,-27 0,-40 0,-5 2,-7 7,-7 15,0 30,0 45,0 2,0 4,0 6,2 1,1 2,3 2,4 1,3 -1,6 -3,7 -8,0 -17,0 -25,0 -18,0 -17,0 -17,20 0,5 3,7 7,7 9,0 18,0 27,0 3,1 4,3 4,6 1,3 0,7 -4,7 -9,0 -18,0 -27,0 -4,1 -7,3 -7,8 0,24 -2,23 20,23 7,0 14,0 20,0 4,0 6,3 6,7 0,4 -2,6 -6,6 -16,0 -33,0 -49,0 -5,0 -7,-4 -7,-8 0,-14 0,-28 0,-42 0,0 0,0 1,0z"/>
    <path class="fil2" d="M2865 789c4,0 5,-4 6,-7 4,-9 9,-19 13,-28 3,-7 7,-8 14,-7 2,1 3,2 3,4 0,2 -1,4 -2,6 -5,9 -9,19 -14,28 -8,16 -14,32 -12,51 1,7 -8,11 -14,7 0,0 -1,-2 -2,-3 0,-1 0,-2 0,-4 2,-18 -4,-33 -12,-49 -6,-11 -11,-22 -16,-34 -2,-3 0,-5 5,-6 6,-1 10,1 13,8 4,8 8,17 11,25 2,4 3,8 7,9z"/>
    <path class="fil2" d="M3004 803c0,-5 0,-11 0,-17 0,-8 1,-16 -2,-22 -3,-7 -12,-2 -19,-4 -3,-1 -4,-4 -4,-7 0,-3 2,-5 4,-6 1,0 3,0 4,0 18,0 35,0 53,0 4,0 6,2 6,6 0,5 -1,7 -6,7 -6,1 -13,-2 -17,3 -5,4 -2,12 -2,19 -1,18 -1,37 -1,55 0,5 -2,7 -7,7 -6,0 -9,-1 -9,-7 0,-11 0,-22 0,-34 0,0 0,0 0,0z"/>
    <path class="fil2" d="M698 802c0,-11 0,-23 0,-34 0,-5 -3,-7 -7,-7 -4,0 -9,0 -13,-1 -4,0 -5,-3 -5,-7 0,-4 2,-6 6,-6 18,0 37,0 56,0 4,0 5,4 5,7 0,3 -1,5 -4,6 -1,0 -1,0 -2,0 -6,1 -12,-2 -16,2 -6,6 -3,14 -3,21 0,18 0,36 0,54 0,6 -3,7 -9,7 -5,0 -7,-1 -7,-6 -1,-12 0,-24 0,-36 -1,0 -1,0 -1,0z"/>
    <path class="fil2" d="M1092 802c0,-6 0,-11 0,-16 0,-8 1,-16 -2,-22 -3,-7 -12,-2 -19,-4 -4,0 -5,-3 -5,-6 0,-4 2,-7 6,-7 19,0 37,0 56,0 4,0 6,3 5,7 0,4 -2,6 -5,6 -4,1 -8,0 -12,1 -7,0 -8,1 -8,10 0,21 0,43 0,65 0,6 -2,8 -9,8 -5,0 -7,-1 -7,-7 0,-12 0,-24 0,-35 0,0 0,0 0,0z"/>
    <path class="fil2" d="M1637 795c0,-14 -1,-28 0,-42 0,-4 2,-6 6,-6 4,0 8,0 9,5 0,4 0,8 0,12 0,17 0,35 0,52 0,14 0,14 13,15 9,0 17,0 25,0 4,0 5,3 5,6 0,4 -1,7 -5,7 -16,0 -31,0 -47,0 -5,0 -7,-3 -7,-8 0,-14 0,-28 0,-41 0,0 0,0 1,0z"/>
    <path class="fil2" d="M1712 803c0,-12 0,-24 0,-36 0,-4 -2,-6 -6,-6 -5,-1 -10,-1 -15,-1 -4,0 -5,-3 -4,-7 0,-3 1,-5 4,-5 4,-1 9,-1 13,-1 13,0 27,0 40,0 2,0 5,0 7,1 3,1 3,4 3,7 0,1 -2,3 -3,4 -1,1 -2,1 -3,1 -6,1 -14,-3 -18,4 -4,5 -2,13 -2,19 0,18 0,36 0,54 0,6 -7,9 -12,6 -3,-1 -3,-3 -3,-6 0,-11 0,-23 0,-34 -1,0 -1,0 -1,0z"/>
    <path class="fil2" d="M2303 802c0,-11 0,-23 0,-34 0,-5 -3,-7 -7,-7 -5,-1 -10,-1 -15,-1 -3,-1 -4,-3 -4,-6 -1,-3 0,-5 3,-6 1,-1 1,-1 2,-1 19,0 38,0 57,0 3,0 5,3 5,7 0,4 -2,6 -5,6 -6,1 -14,-2 -18,3 -5,6 -2,14 -2,21 -1,18 -1,36 -1,54 0,5 -2,6 -7,6 -6,0 -8,-2 -8,-6 0,-12 0,-24 0,-36 0,0 0,0 0,0z"/>
    <path class="fil2" d="M2189 797c0,13 0,27 0,40 0,5 -2,7 -7,7 -6,0 -9,-1 -9,-7 0,-28 0,-56 1,-84 0,-4 2,-6 7,-6 6,0 8,2 8,6 0,15 0,30 0,44 0,0 0,0 0,0z"/>
    <path class="fil3" d="M0 119c2,-1 0,-4 2,-5 2,-1 3,1 4,3 12,19 25,38 39,56 17,21 35,41 55,60 32,31 68,57 105,80 8,5 16,9 23,14 0,3 -1,4 -4,4 -12,-3 -24,-9 -36,-14 -9,-4 -19,-9 -28,-14 -1,-1 -3,-1 -4,-1 -3,-1 -5,-2 -7,-3 -19,-12 -38,-24 -57,-36 -2,-1 -4,-3 -7,-4 -16,-12 -33,-24 -48,-37 -11,-10 -22,-19 -33,-30 -1,-2 -3,-4 -4,-6 0,-19 0,-38 0,-56 1,-3 1,-5 0,-7 0,-1 0,-2 0,-4z"/>
    <path class="fil4" d="M0 515c0,-2 0,-4 0,-6 0,-6 3,-8 8,-10 43,-12 84,-31 123,-53 13,-8 25,-15 37,-23 1,-1 3,-2 4,-2 6,1 10,5 13,11 0,2 -2,3 -3,5 -28,24 -59,46 -91,64 -25,15 -51,28 -79,38 -2,1 -4,2 -7,1 -4,-7 -4,-15 -4,-22 -1,-1 0,-2 -1,-3z"/>
    <path class="fil3" d="M307 439c0,1 1,2 1,3 14,40 25,80 31,122 3,19 5,37 6,56 0,5 2,9 -1,14 -13,0 -26,0 -39,0 -3,-5 -1,-10 -1,-15 3,-27 2,-55 1,-83 -1,-32 -6,-64 -12,-95 -2,-10 -4,-20 -7,-29 -1,-6 3,-8 7,-10 4,10 8,21 12,32 1,1 2,3 2,5z"/>
    <path class="fil4" d="M147 634c-11,0 -21,0 -32,0 -4,-2 -9,0 -13,-3 -2,-2 1,-4 2,-5 3,-4 6,-7 9,-10 31,-32 57,-67 80,-105 8,-15 16,-29 23,-44 1,-2 2,-4 4,-5 6,2 11,7 15,12 -3,10 -7,20 -12,30 -10,24 -22,47 -35,70 -11,19 -23,37 -36,54 -1,2 -3,5 -5,6z"/>
    <path class="fil3" d="M512 630c-5,2 -11,1 -16,4 -1,0 -1,0 -2,0 -2,-1 -3,-1 -5,0 -10,0 -19,0 -29,0 -1,-1 -2,-3 -2,-5 -9,-26 -19,-52 -31,-77 -3,-6 -6,-12 -9,-19 8,-9 15,-18 23,-27 25,33 47,68 64,106 3,6 6,11 7,18z"/>
    <path class="fil3" d="M147 634c6,-8 11,-16 17,-24 12,-18 24,-37 34,-57 14,-25 26,-52 36,-80 1,-4 4,-6 6,-9 4,-5 8,-9 11,-14 1,-1 2,-3 5,-1 0,3 -1,6 -1,9 -10,51 -24,101 -45,148 -4,8 -8,16 -12,24 0,1 -1,3 -3,4 -16,0 -32,0 -48,0z"/>
    <path class="fil3" d="M173 421c-11,7 -22,14 -33,21 -22,13 -45,25 -69,36 -21,9 -43,17 -65,23 -4,1 -5,4 -6,8 0,-17 0,-33 0,-49 2,-3 6,-2 8,-3 22,-3 44,-8 65,-15 29,-8 58,-19 86,-32 7,1 11,6 14,11z"/>
    <path class="fil3" d="M272 634c-14,0 -27,0 -41,0 -1,-2 0,-4 1,-6 17,-49 29,-99 34,-150 1,-15 3,-30 2,-46 1,-6 5,-9 9,-12 1,-1 2,-1 3,0 2,16 3,31 4,47 1,16 2,33 1,49 0,37 -4,74 -10,110 -1,3 -1,6 -3,8z"/>
    <path class="fil4" d="M272 634c1,-9 3,-17 4,-26 2,-13 4,-26 5,-39 2,-26 3,-53 3,-79 -1,-18 -2,-36 -4,-53 -1,-6 -2,-12 -1,-18 0,-4 2,-7 6,-8 2,0 2,-1 3,1 4,17 8,34 11,52 2,12 4,25 5,38 1,8 2,16 2,24 2,25 2,50 1,75 0,11 -1,22 -2,33 -11,0 -22,0 -33,0z"/>
    <path class="fil3" d="M335 470c16,16 32,32 48,49 16,35 29,71 39,108 0,2 1,5 0,7 -15,0 -30,0 -44,0 -1,-2 -1,-4 -2,-5 -5,-42 -14,-82 -28,-121 -4,-11 -8,-22 -12,-33 -1,-2 -2,-3 -1,-5z"/>
    <path class="fil4" d="M269 431c2,6 1,11 0,17 0,6 -1,12 -1,18 -1,14 -3,27 -4,41 -3,22 -8,44 -14,66 -5,21 -11,41 -19,61 -12,0 -24,0 -36,0 1,-2 2,-4 2,-5 15,-29 27,-59 36,-90 9,-29 16,-57 21,-86 0,-2 1,-3 1,-5 -1,-3 2,-5 3,-6 4,-4 5,-9 11,-11z"/>
    <path class="fil4" d="M335 470c18,40 30,83 38,126 2,13 5,25 5,38 -11,0 -23,0 -34,0 -1,-21 -3,-42 -5,-63 -4,-24 -9,-48 -15,-71 -4,-19 -10,-37 -16,-55 0,-1 -2,-3 0,-3 10,9 19,18 27,28z"/>
    <path class="fil4" d="M160 410c-5,4 -11,6 -17,9 -29,12 -60,23 -90,30 -17,5 -33,8 -50,10 -1,0 -2,1 -3,1 0,-11 0,-23 0,-35 5,-2 10,-1 15,-2 28,-3 56,-7 84,-14 13,-3 26,-7 39,-11 2,-1 4,-1 7,-1 6,2 12,6 15,13z"/>
    <path class="fil3" d="M146 398c-14,3 -28,8 -42,11 -21,5 -41,10 -62,12 -14,2 -28,4 -42,4 0,-12 0,-25 0,-38 3,-2 6,-1 10,-1 16,1 33,2 50,1 20,-1 40,-2 60,-4 2,0 4,-1 6,-1 1,0 0,0 1,0 4,0 17,11 19,16z"/>
    <path class="fil4" d="M422 634c-4,-18 -9,-35 -15,-52 -7,-21 -15,-41 -24,-60 -1,-1 -1,-2 0,-3 7,8 15,15 23,23 1,2 2,2 4,0 2,-3 5,-6 8,-9 1,0 2,1 2,2 11,21 21,42 29,64 4,12 8,23 11,35 -13,0 -26,0 -38,0z"/>
    <path class="fil4" d="M128 382c-4,4 -9,2 -14,3 -7,2 -14,2 -20,2 -17,1 -33,2 -49,2 -15,0 -30,-1 -45,-2 0,-11 0,-22 0,-32 2,-2 4,-2 6,-1 19,3 38,5 57,7 14,1 28,1 42,1 1,0 3,1 4,2 6,5 12,10 18,15 1,1 1,2 1,3z"/>
    <path class="fil4" d="M0 186c7,6 12,12 19,18 17,16 34,30 53,44 4,3 10,6 13,11 1,1 0,2 0,3 -4,5 -8,10 -12,16 0,0 -1,1 -3,1 -8,-2 -15,-8 -22,-12 -15,-9 -29,-19 -43,-29 -2,-2 -4,-3 -5,-6 0,-15 0,-31 0,-46z"/>
    <path class="fil3" d="M107 364c-16,0 -32,-1 -48,-2 -17,-1 -34,-4 -51,-6 -3,-1 -5,-2 -8,-1 0,-14 0,-27 0,-40 2,-1 5,0 7,1 20,7 40,13 60,18 2,0 4,1 6,0 2,0 3,1 5,3 9,7 18,15 26,23 1,1 3,2 3,4z"/>
    <path class="fil3" d="M0 232c22,18 46,33 71,47 0,1 0,2 -1,2 -4,7 -9,14 -15,20 0,1 -1,2 -3,2 -1,0 -2,0 -3,0 -15,-6 -31,-13 -46,-21 -1,-1 -2,-1 -3,-2 0,-16 0,-32 0,-48z"/>
    <path class="fil4" d="M0 280c12,5 23,10 35,16 6,2 12,5 18,6 0,2 -1,3 -1,4 -3,5 -3,5 1,9 6,5 12,11 18,16 1,1 3,2 2,4 -4,2 -8,-1 -13,-2 -18,-4 -36,-10 -54,-16 -2,-1 -4,-1 -6,-2 0,-12 0,-23 0,-35z"/>
    <path class="fil5" d="M0 123c2,2 1,4 0,7 0,-3 0,-5 0,-7z"/>
    <path class="fil6" d="M489 634c2,-1 3,-2 5,0 -2,0 -3,0 -5,0z"/>
    <path class="fil3" d="M498 1c26,4 49,14 69,32 -13,6 -26,12 -39,19 -35,19 -68,41 -98,67 -15,12 -28,25 -41,39 -22,23 -42,47 -60,73 -1,2 -2,3 -3,5 -5,7 -13,12 -19,19 -2,2 -5,4 -7,7 -1,1 -2,3 -5,2 -1,-2 1,-4 1,-6 25,-57 55,-109 94,-156 12,-14 23,-27 36,-39 22,-23 46,-44 72,-62z"/>
    <path class="fil3" d="M20 64c10,-18 24,-33 42,-43 3,5 4,12 5,19 18,65 46,124 84,179 23,34 49,64 77,92 3,3 7,5 8,8 0,3 -1,5 -4,5 -18,-14 -35,-27 -52,-42 -8,-7 -16,-14 -23,-22 -10,-10 -20,-20 -30,-30 -26,-29 -49,-60 -70,-93 -14,-23 -26,-46 -36,-71 -1,-1 -1,-1 -1,-2z"/>
    <path class="fil4" d="M498 1c0,2 -1,3 -2,3 -16,11 -31,24 -45,36 -18,17 -36,34 -52,53 -21,25 -40,52 -57,80 -18,28 -33,58 -46,89 0,1 0,1 0,2 -4,7 -10,12 -17,15 -2,-2 -1,-4 0,-6 7,-28 16,-56 27,-82 21,-49 47,-94 79,-136 14,-18 29,-35 45,-51 1,-2 3,-3 4,-4 22,0 43,-1 64,1z"/>
    <path class="fil3" d="M99 4c9,-3 18,-3 27,-4 8,0 16,0 24,0 1,2 1,4 1,6 1,42 7,84 17,125 11,46 28,90 49,132 8,17 18,33 27,49 0,3 -2,4 -4,4 -6,-6 -11,-13 -16,-20 -21,-28 -41,-58 -58,-89 -21,-39 -38,-80 -51,-123 -6,-23 -12,-47 -16,-71 0,-3 -2,-6 0,-9z"/>
    <path class="fil3" d="M434 0c-6,7 -12,13 -18,20 -26,28 -48,58 -68,91 -11,19 -21,38 -30,57 -16,34 -29,70 -39,106 0,2 -1,3 1,5 -2,5 -6,9 -11,8 0,-8 2,-16 3,-24 7,-53 20,-105 40,-155 14,-36 31,-70 52,-102 1,-2 2,-5 5,-6 22,0 44,0 65,0z"/>
    <path class="fil4" d="M99 4c6,36 14,72 26,106 12,36 28,70 46,104 17,29 35,56 55,83 4,6 10,12 14,19 0,2 -1,4 -4,4 -15,-13 -28,-28 -41,-42 -14,-16 -28,-34 -40,-51 -14,-20 -27,-40 -38,-61 -20,-36 -36,-74 -47,-113 -3,-10 -7,-21 -8,-32 11,-8 24,-14 37,-17z"/>
    <path class="fil4" d="M20 64c2,1 3,4 4,6 16,38 37,74 62,107 10,14 20,27 31,40 10,10 19,21 29,31 18,18 37,36 57,51 9,7 18,14 27,21 1,1 2,2 2,3 0,3 -1,4 -4,4 -5,-2 -10,-5 -15,-8 -25,-15 -49,-30 -72,-49 -14,-11 -28,-23 -41,-35 -10,-9 -19,-19 -28,-29 -18,-20 -36,-40 -51,-63 -6,-9 -12,-18 -18,-28 0,0 -1,0 -1,-1 2,-18 8,-35 18,-50z"/>
    <path class="fil3" d="M187 0c16,0 32,0 48,0 2,2 1,5 1,7 -4,20 -8,41 -9,63 -2,20 -3,41 -2,62 1,47 7,93 18,138 3,11 6,22 9,33 0,4 -1,6 -4,5 -4,-3 -5,-7 -6,-11 -24,-56 -42,-115 -50,-176 -4,-22 -6,-44 -6,-66 0,-9 -1,-17 -1,-26 0,-8 1,-16 1,-24 0,-2 0,-4 1,-5z"/>
    <path class="fil3" d="M612 171c0,14 0,28 0,43 0,2 0,3 -2,4 -3,3 -6,5 -9,8 -7,1 -15,1 -23,1 -56,3 -110,16 -163,36 -3,1 -6,3 -9,3 -3,-2 -1,-3 0,-5 4,-5 8,-9 12,-14 6,-8 13,-16 19,-24 1,-1 3,-3 5,-4 5,-1 9,-3 13,-5 45,-21 91,-35 140,-42 5,-1 11,-3 17,-1z"/>
    <path class="fil4" d="M187 0c0,8 0,16 0,23 -1,17 0,34 1,51 1,8 2,17 2,25 2,19 5,38 9,56 6,31 14,61 24,90 8,22 16,43 25,63 0,3 -1,5 -4,4 -5,-3 -7,-8 -9,-13 -20,-34 -36,-69 -50,-106 -11,-31 -20,-63 -26,-96 -3,-18 -6,-37 -7,-56 -2,-13 -2,-27 -2,-41 12,0 25,0 37,0z"/>
    <path class="fil4" d="M326 236c1,-6 5,-10 8,-14 15,-20 30,-39 47,-57 31,-34 66,-64 104,-89 24,-16 50,-30 77,-42 1,-1 3,-1 5,-1 11,10 21,22 28,36 0,3 -3,3 -4,4 -18,6 -35,13 -52,20 -19,9 -38,19 -56,30 -2,1 -3,2 -5,2 -2,1 -4,-1 -5,-2 -3,-2 -7,-4 -10,-7 -3,-2 -5,-2 -8,1 -9,8 -18,16 -27,25 -13,12 -26,24 -39,36 -12,11 -24,22 -35,34 -8,7 -17,14 -25,22 -1,1 -2,2 -3,2z"/>
    <path class="fil3" d="M274 0c17,0 34,0 50,0 1,3 0,5 -1,7 -22,46 -39,95 -48,145 -5,23 -8,45 -10,68 -2,21 -3,42 -3,63 0,4 1,8 1,12 -2,2 -2,6 -7,4 -3,-9 -3,-18 -4,-28 -6,-39 -7,-79 -5,-119 1,-44 8,-87 19,-130 2,-5 3,-11 5,-16 1,-2 1,-4 3,-6z"/>
    <path class="fil4" d="M262 295c-2,-12 -1,-25 -1,-38 1,-2 1,-5 1,-7 0,-22 3,-43 6,-64 3,-27 9,-53 16,-79 7,-25 15,-50 26,-75 5,-10 9,-21 14,-32 15,0 30,0 45,0 -18,27 -33,56 -46,86 -11,23 -19,46 -27,70 -9,30 -15,60 -20,91 -3,14 -4,27 -6,41 -1,4 -4,7 -8,7z"/>
    <path class="fil4" d="M274 0c-4,14 -8,28 -11,43 -5,21 -8,43 -11,65 -5,35 -5,70 -4,105 1,23 3,46 7,69 1,6 1,12 2,18 0,3 -2,5 -5,4 -1,0 -2,-2 -2,-3 -8,-25 -13,-50 -18,-75 -2,-14 -4,-27 -5,-41 -3,-26 -4,-52 -4,-77 1,-18 2,-35 4,-53 2,-18 5,-36 8,-55 13,0 26,0 39,0z"/>
    <path class="fil3" d="M459 485c7,-9 15,-18 23,-27 19,16 38,33 55,51 16,17 31,34 45,53 3,4 5,8 8,11 -10,17 -24,31 -41,41 -4,-3 -5,-8 -7,-12 -18,-33 -39,-64 -63,-93 -5,-7 -11,-14 -18,-21 -1,-1 -2,-2 -2,-3z"/>
    <path class="fil3" d="M477 125c9,-6 18,-10 27,-16 18,-10 38,-19 57,-27 10,-4 20,-7 30,-11 1,0 3,-1 4,-2 11,20 17,42 17,65 -3,-1 -1,-4 -3,-5 -28,5 -55,13 -82,22 -13,5 -25,10 -37,16 -2,0 -3,1 -4,1 -3,-2 -1,-4 0,-5 4,-5 8,-10 12,-14 4,-4 4,-5 -1,-8 -5,-4 -11,-8 -16,-12 -2,-1 -4,-2 -4,-4z"/>
    <path class="fil4" d="M485 167c16,-7 33,-14 50,-20 23,-8 47,-14 71,-19 7,-2 4,3 6,6 0,12 0,24 0,37 -10,1 -20,3 -31,5 -20,3 -41,8 -61,15 -25,7 -50,17 -74,28 -1,1 -3,2 -5,1 0,-4 4,-6 6,-9 11,-13 21,-26 32,-39 2,-2 3,-4 6,-5z"/>
    <path class="fil4" d="M405 265c24,-9 48,-18 74,-24 21,-5 43,-9 64,-12 18,-2 35,-4 53,-4 2,0 4,-1 5,1 -13,13 -27,26 -41,38 -2,1 -4,2 -7,2 -28,0 -55,3 -83,8 -27,4 -54,11 -81,20 -2,1 -4,2 -7,0 -1,-1 0,-3 1,-4 6,-8 13,-16 20,-24 0,-1 1,-1 2,-1z"/>
    <path class="fil4" d="M590 573c-5,-1 -6,-7 -9,-10 -11,-14 -22,-28 -33,-41 -7,-7 -14,-15 -21,-22 -14,-13 -27,-26 -42,-38 -2,-1 -3,-2 -3,-4 6,-7 12,-15 19,-21 2,-1 4,0 5,1 22,16 43,32 63,51 13,11 24,24 36,36 2,1 4,3 3,5 -3,16 -9,30 -18,43z"/>
    <path class="fil3" d="M608 530c-12,-13 -24,-26 -37,-38 -14,-13 -29,-26 -44,-37 -9,-7 -17,-13 -26,-18 8,-10 16,-20 25,-29 7,2 14,6 21,10 21,12 42,24 61,39 2,1 3,2 4,4 0,23 2,45 -3,67 0,1 -1,2 -1,2z"/>
    <path class="fil4" d="M459 485c9,7 16,16 23,25 15,18 28,37 40,56 10,16 19,32 27,48 -11,8 -23,13 -37,16 -4,-10 -9,-19 -14,-29 -15,-31 -33,-61 -53,-89 -2,-2 -4,-4 -4,-6 6,-8 12,-15 18,-21z"/>
    <path class="fil3" d="M382 293c2,2 4,0 5,0 31,-10 61,-18 93,-22 17,-3 35,-5 53,-6 9,-1 18,-1 27,-1 -14,14 -29,27 -43,39 -14,1 -28,1 -42,1 -34,-1 -68,4 -102,10 -2,1 -5,1 -7,1 -2,0 -3,-1 -2,-2 6,-7 11,-14 17,-20 0,0 1,0 1,0z"/>
    <path class="fil4" d="M364 314c13,-3 26,-5 40,-7 15,-2 31,-3 47,-5 8,0 16,0 24,0 12,0 25,0 37,0 2,0 4,0 5,1 -9,10 -19,18 -29,27 -6,3 -12,0 -18,0 -25,-2 -51,-2 -76,-1 -14,1 -27,3 -41,2 -2,-1 -2,-2 -1,-4 4,-4 6,-10 12,-13z"/>
    <path class="fil4" d="M612 461c-26,-19 -53,-35 -81,-50 -2,-1 -4,-1 -5,-3 6,-9 14,-18 21,-26 2,-1 4,0 5,1 20,8 38,17 57,27 1,1 2,2 3,3 0,16 0,32 0,48z"/>
    <path class="fil3" d="M612 413c-21,-12 -42,-22 -65,-31 10,-12 21,-24 31,-36 11,3 21,7 32,10 1,0 1,1 2,2 0,18 0,37 0,55z"/>
    <path class="fil3" d="M352 330c1,1 1,0 3,0 11,0 23,-2 34,-2 14,-1 27,-1 41,-1 19,-1 39,2 58,3 -9,9 -18,17 -28,26 -6,0 -13,-3 -19,-4 -23,-4 -46,-7 -68,-9 -10,0 -20,1 -30,-1 0,0 -2,-1 -1,-2 3,-4 5,-9 10,-10z"/>
    <path class="fil4" d="M342 341c21,0 41,2 61,4 18,2 35,5 52,8 2,1 4,1 5,3 -6,6 -13,12 -20,18 -2,1 -4,1 -6,0 -31,-9 -62,-16 -94,-20 -2,-1 -4,-1 -5,-3 0,-4 3,-8 7,-10z"/>
    <path class="fil3" d="M335 350c4,4 8,3 12,3 30,5 60,12 89,20 1,1 3,1 4,1 -7,6 -13,13 -20,19 -21,-11 -43,-19 -65,-26 -9,-3 -17,-5 -26,-8 -1,-4 1,-7 6,-9z"/>
    <path class="fil4" d="M328 359c7,0 12,2 18,4 24,7 47,16 70,26 2,1 4,1 4,4 -5,5 -11,10 -16,14 -13,-6 -26,-13 -38,-21 -2,-1 -5,-3 -7,-5 -1,-1 -2,-2 -4,-1 -1,1 -2,1 -3,0 -10,-4 -19,-8 -28,-12 -1,0 -2,-1 -2,-2 1,-3 2,-7 6,-7z"/>
    <path class="fil4" d="M612 358c-11,-3 -22,-7 -32,-10 -1,0 -1,-1 -2,-2 9,-10 18,-21 27,-31 2,-1 5,-1 7,2 0,13 0,27 0,41z"/>
    <path class="fil4" d="M307 439c0,0 -1,1 -1,-1 -4,-11 -9,-22 -13,-33 0,-1 0,-2 0,-3 -1,-4 2,-5 5,-7 2,0 3,2 4,3 5,8 9,16 13,24 1,2 2,5 1,7 -3,3 -5,7 -9,10z"/>
    <path class="fil4" d="M333 408c-3,4 -6,7 -9,10 -2,2 -3,0 -4,-2 -5,-7 -11,-15 -16,-22 -1,-2 -2,-4 -1,-6 1,-2 2,-4 5,-5 1,0 2,0 3,0 7,8 16,16 22,25z"/>
    <path class="fil4" d="M347 390c-2,4 -5,7 -8,10 -2,0 -3,-1 -4,-2 -7,-5 -14,-11 -21,-16 -1,-1 -2,-2 -2,-4 1,-3 2,-6 5,-7 2,0 4,0 5,1 8,5 16,9 23,14 1,1 3,2 2,4z"/>
    <path class="fil3" d="M347 390c-3,-4 -8,-6 -12,-9 -6,-3 -11,-8 -18,-9 1,-3 2,-6 5,-6 11,5 22,10 33,14 -2,4 -5,7 -8,10z"/>
    <path class="fil3" d="M304 389c-1,4 3,7 5,10 4,6 9,11 13,17 0,1 1,2 2,2 -3,4 -5,7 -8,11 -2,-9 -8,-16 -12,-24 -1,-3 -3,-7 -6,-9 0,-4 2,-6 6,-7z"/>
    <path class="fil3" d="M312 378c6,6 13,10 19,15 3,3 6,5 8,7 -2,3 -4,6 -6,8 -7,-7 -13,-13 -19,-20 -2,-2 -4,-4 -6,-5 0,-3 1,-5 4,-5z"/>
    <path class="fil7" d="M366 386c13,6 26,13 38,21 -6,7 -6,7 -13,1 -9,-7 -17,-14 -25,-22z"/>
    <path class="fil8" d="M612 317c-2,-1 -5,-1 -7,-2 2,-2 4,-5 7,-9 0,5 0,8 0,11z"/>
    <path class="fil4" d="M224 331c-7,9 -7,9 -17,3 -17,-11 -34,-22 -51,-33 1,-1 2,0 3,0 21,11 43,21 65,30z"/>
    <path class="fil3" d="M185 431c4,3 8,7 12,11 -2,3 -4,5 -6,8 -44,50 -94,93 -152,126 -4,2 -7,5 -11,6 -10,-13 -17,-27 -22,-43 10,-2 20,-7 29,-11 36,-15 69,-34 101,-57 16,-12 32,-24 47,-37 1,0 2,-1 2,-3z"/>
    <path class="fil3" d="M208 452c5,3 9,6 12,10 -7,13 -13,27 -21,39 -12,22 -25,42 -39,62 -17,23 -36,44 -56,65 -1,0 -2,1 -2,3 -17,-4 -33,-11 -48,-23 6,-5 13,-9 20,-14 30,-22 57,-49 83,-77 17,-19 33,-40 48,-61 1,-2 2,-4 3,-4z"/>
    <path class="fil4" d="M208 452c-6,11 -14,21 -22,32 -17,23 -37,44 -57,64 -14,14 -28,26 -42,37 -9,7 -19,14 -28,21 -1,1 -3,2 -5,2 -10,-7 -19,-16 -26,-26 10,-6 20,-12 29,-18 22,-14 42,-29 62,-45 20,-17 39,-35 57,-54 6,-6 11,-13 17,-20 1,-1 2,-2 4,-3 4,3 8,6 11,10z"/>
    <polygon class="fil0" points="44,309 81,256 216,337 465,107 508,138 234,477 "/>
   </g>
  </g>
 </g>
</svg>
